<mxfile host="app.diagrams.net" agent="Mozilla/5.0 (X11; Linux x86_64) AppleWebKit/537.36 (KHTML, like Gecko) Chrome/135.0.0.0 Safari/537.36" version="26.2.12">
  <diagram name="Page-1" id="zIaptqzH1kooR-nt7GtP">
    <mxGraphModel dx="2691" dy="1165" grid="1" gridSize="10" guides="1" tooltips="1" connect="1" arrows="1" fold="1" page="1" pageScale="1" pageWidth="850" pageHeight="1100" math="0" shadow="0">
      <root>
        <mxCell id="0" />
        <mxCell id="1" parent="0" />
        <mxCell id="gMgSUIfxNflA_Ydn8-CS-8" style="edgeStyle=orthogonalEdgeStyle;rounded=0;orthogonalLoop=1;jettySize=auto;html=1;entryX=0;entryY=0.5;entryDx=0;entryDy=0;" edge="1" parent="1" source="gMgSUIfxNflA_Ydn8-CS-2" target="gMgSUIfxNflA_Ydn8-CS-5">
          <mxGeometry relative="1" as="geometry" />
        </mxCell>
        <mxCell id="gMgSUIfxNflA_Ydn8-CS-10" style="edgeStyle=orthogonalEdgeStyle;rounded=0;orthogonalLoop=1;jettySize=auto;html=1;entryX=0;entryY=0.5;entryDx=0;entryDy=0;" edge="1" parent="1" source="gMgSUIfxNflA_Ydn8-CS-2" target="gMgSUIfxNflA_Ydn8-CS-6">
          <mxGeometry relative="1" as="geometry" />
        </mxCell>
        <mxCell id="gMgSUIfxNflA_Ydn8-CS-2" value="Preprocessor" style="rounded=1;whiteSpace=wrap;html=1;" vertex="1" parent="1">
          <mxGeometry x="-140" y="490" width="120" height="60" as="geometry" />
        </mxCell>
        <mxCell id="gMgSUIfxNflA_Ydn8-CS-7" style="edgeStyle=orthogonalEdgeStyle;rounded=0;orthogonalLoop=1;jettySize=auto;html=1;" edge="1" parent="1" source="gMgSUIfxNflA_Ydn8-CS-3" target="gMgSUIfxNflA_Ydn8-CS-2">
          <mxGeometry relative="1" as="geometry" />
        </mxCell>
        <mxCell id="gMgSUIfxNflA_Ydn8-CS-23" style="edgeStyle=orthogonalEdgeStyle;rounded=0;orthogonalLoop=1;jettySize=auto;html=1;entryX=0;entryY=0.5;entryDx=0;entryDy=0;" edge="1" parent="1" source="gMgSUIfxNflA_Ydn8-CS-3" target="gMgSUIfxNflA_Ydn8-CS-16">
          <mxGeometry relative="1" as="geometry" />
        </mxCell>
        <mxCell id="gMgSUIfxNflA_Ydn8-CS-3" value="Query" style="rounded=1;whiteSpace=wrap;html=1;" vertex="1" parent="1">
          <mxGeometry x="-380" y="620" width="120" height="60" as="geometry" />
        </mxCell>
        <mxCell id="gMgSUIfxNflA_Ydn8-CS-31" style="edgeStyle=orthogonalEdgeStyle;rounded=0;orthogonalLoop=1;jettySize=auto;html=1;entryX=0.5;entryY=0;entryDx=0;entryDy=0;" edge="1" parent="1" source="gMgSUIfxNflA_Ydn8-CS-4" target="gMgSUIfxNflA_Ydn8-CS-11">
          <mxGeometry relative="1" as="geometry" />
        </mxCell>
        <mxCell id="gMgSUIfxNflA_Ydn8-CS-4" value="kNN + threshold" style="rounded=1;whiteSpace=wrap;html=1;" vertex="1" parent="1">
          <mxGeometry x="310" y="360" width="120" height="60" as="geometry" />
        </mxCell>
        <mxCell id="gMgSUIfxNflA_Ydn8-CS-29" style="edgeStyle=orthogonalEdgeStyle;rounded=0;orthogonalLoop=1;jettySize=auto;html=1;entryX=0;entryY=0.5;entryDx=0;entryDy=0;" edge="1" parent="1" source="gMgSUIfxNflA_Ydn8-CS-5" target="gMgSUIfxNflA_Ydn8-CS-4">
          <mxGeometry relative="1" as="geometry" />
        </mxCell>
        <mxCell id="gMgSUIfxNflA_Ydn8-CS-5" value="TF-IDF uni -vectorizer" style="rounded=1;whiteSpace=wrap;html=1;" vertex="1" parent="1">
          <mxGeometry x="60" y="430" width="120" height="60" as="geometry" />
        </mxCell>
        <mxCell id="gMgSUIfxNflA_Ydn8-CS-30" style="edgeStyle=orthogonalEdgeStyle;rounded=0;orthogonalLoop=1;jettySize=auto;html=1;entryX=0;entryY=0.5;entryDx=0;entryDy=0;" edge="1" parent="1" source="gMgSUIfxNflA_Ydn8-CS-6" target="gMgSUIfxNflA_Ydn8-CS-4">
          <mxGeometry relative="1" as="geometry" />
        </mxCell>
        <mxCell id="gMgSUIfxNflA_Ydn8-CS-6" value="TF-IDF bi -vectorizer" style="rounded=1;whiteSpace=wrap;html=1;" vertex="1" parent="1">
          <mxGeometry x="60" y="540" width="120" height="60" as="geometry" />
        </mxCell>
        <mxCell id="gMgSUIfxNflA_Ydn8-CS-22" style="edgeStyle=orthogonalEdgeStyle;rounded=0;orthogonalLoop=1;jettySize=auto;html=1;entryX=0.5;entryY=0;entryDx=0;entryDy=0;" edge="1" parent="1" source="gMgSUIfxNflA_Ydn8-CS-11" target="gMgSUIfxNflA_Ydn8-CS-16">
          <mxGeometry relative="1" as="geometry" />
        </mxCell>
        <mxCell id="gMgSUIfxNflA_Ydn8-CS-11" value="retrieved documetns" style="rounded=1;whiteSpace=wrap;html=1;" vertex="1" parent="1">
          <mxGeometry x="440" y="480" width="120" height="60" as="geometry" />
        </mxCell>
        <mxCell id="gMgSUIfxNflA_Ydn8-CS-25" style="edgeStyle=orthogonalEdgeStyle;rounded=0;orthogonalLoop=1;jettySize=auto;html=1;" edge="1" parent="1" source="gMgSUIfxNflA_Ydn8-CS-12" target="gMgSUIfxNflA_Ydn8-CS-14">
          <mxGeometry relative="1" as="geometry" />
        </mxCell>
        <mxCell id="gMgSUIfxNflA_Ydn8-CS-12" value="LLM tokenizer" style="rounded=1;whiteSpace=wrap;html=1;" vertex="1" parent="1">
          <mxGeometry x="380" y="800" width="120" height="60" as="geometry" />
        </mxCell>
        <mxCell id="gMgSUIfxNflA_Ydn8-CS-21" style="edgeStyle=orthogonalEdgeStyle;rounded=0;orthogonalLoop=1;jettySize=auto;html=1;entryX=0.5;entryY=0;entryDx=0;entryDy=0;" edge="1" parent="1" source="gMgSUIfxNflA_Ydn8-CS-13" target="gMgSUIfxNflA_Ydn8-CS-15">
          <mxGeometry relative="1" as="geometry" />
        </mxCell>
        <mxCell id="gMgSUIfxNflA_Ydn8-CS-13" value="LLM decode" style="rounded=1;whiteSpace=wrap;html=1;" vertex="1" parent="1">
          <mxGeometry x="710" y="640" width="120" height="60" as="geometry" />
        </mxCell>
        <mxCell id="gMgSUIfxNflA_Ydn8-CS-20" style="edgeStyle=orthogonalEdgeStyle;rounded=0;orthogonalLoop=1;jettySize=auto;html=1;" edge="1" parent="1" source="gMgSUIfxNflA_Ydn8-CS-14" target="gMgSUIfxNflA_Ydn8-CS-13">
          <mxGeometry relative="1" as="geometry" />
        </mxCell>
        <mxCell id="gMgSUIfxNflA_Ydn8-CS-14" value="LLM generation" style="rounded=1;whiteSpace=wrap;html=1;" vertex="1" parent="1">
          <mxGeometry x="490" y="640" width="120" height="60" as="geometry" />
        </mxCell>
        <mxCell id="gMgSUIfxNflA_Ydn8-CS-15" value="answer" style="rounded=1;whiteSpace=wrap;html=1;" vertex="1" parent="1">
          <mxGeometry x="690" y="930" width="120" height="60" as="geometry" />
        </mxCell>
        <mxCell id="gMgSUIfxNflA_Ydn8-CS-26" style="edgeStyle=orthogonalEdgeStyle;rounded=0;orthogonalLoop=1;jettySize=auto;html=1;entryX=0;entryY=0.5;entryDx=0;entryDy=0;" edge="1" parent="1" source="gMgSUIfxNflA_Ydn8-CS-16" target="gMgSUIfxNflA_Ydn8-CS-12">
          <mxGeometry relative="1" as="geometry" />
        </mxCell>
        <mxCell id="gMgSUIfxNflA_Ydn8-CS-16" value="Prompt" style="rounded=1;whiteSpace=wrap;html=1;" vertex="1" parent="1">
          <mxGeometry x="250" y="700" width="120" height="60" as="geometry" />
        </mxCell>
      </root>
    </mxGraphModel>
  </diagram>
</mxfile>
